#!OML:ASF F:\VICON\USERDATA\INSTALL\rory3\rory3.ASF
:FULLY-SPECIFIED
:DEGREES
578
root 0.593601 15.73 -3.20785 341.06 -48.2386 -357.428
lowerback 19.0085 -0.577782 -6.33048
upperback 11.2528 -2.20866 -1.10262
thorax 1.71897 -1.59633 2.76251
lowerneck -6.90828 -14.9535 -21.6658
upperneck 19.2433 -20.2808 11.745
head 10.7871 -10.0891 4.68984
rclavicle 4.67144e-014 -3.06128e-014
rhumerus -27.667 25.8608 -94.1553
rradius 85.5309
rwrist 36.8424
rhand -36.0793 15.1452
rfingers 7.12502
rthumb -9.18628 -14.6347
lclavicle 4.67144e-014 -3.06128e-014
lhumerus -25.2272 -8.78186 85.6634
lradius 69.1436
lwrist -4.82965
lhand -22.4754 18.6005
lfingers 7.12502
lthumb 3.94969 48.5437
rfemur -72.5237 -29.8431 26.4728
rtibia 137.589
rfoot 1.28387 6.26037
rtoes -0.658132
lfemur -41.7239 32.2458 -16.3442
ltibia 99.7942
lfoot 0.434885 -6.95842
ltoes -19.944
579
root 0.589099 15.7296 -3.20324 341.088 -48.3142 -357.399
lowerback 18.9671 -0.583652 -6.3709
upperback 11.1975 -2.21808 -1.04171
thorax 1.68532 -1.60162 2.85169
lowerneck -6.86022 -14.9087 -21.7922
upperneck 19.1928 -20.1979 11.7295
head 10.7576 -10.0625 4.72176
rclavicle 3.89618e-014 3.57812e-015
rhumerus -27.707 26.0243 -94.1033
rradius 85.4774
rwrist 36.7352
rhand -36.0816 15.119
rfingers 7.12502
rthumb -9.18851 -14.6609
lclavicle 3.89618e-014 3.57812e-015
lhumerus -25.3077 -8.6181 85.7124
lradius 69.0859
lwrist -4.88989
lhand -22.7297 18.5241
lfingers 7.12502
lthumb 3.70415 48.4716
rfemur -72.5709 -29.5756 26.4745
rtibia 137.596
rfoot 1.34388 6.04636
rtoes 0.374283
lfemur -41.7413 32.4153 -16.3354
ltibia 99.8086
lfoot 0.449836 -7.01131
ltoes -20.1486
580
root 0.585225 15.7316 -3.19881 341.134 -48.3784 -357.382
lowerback 18.9023 -0.593142 -6.36285
upperback 11.1709 -2.22352 -1.03308
thorax 1.68952 -1.60293 2.8558
lowerneck -6.97181 -14.8872 -21.6643
upperneck 19.2344 -20.1249 11.5646
head 10.7451 -10.0293 4.65414
rclavicle -2.76311e-014 -5.96354e-015
rhumerus -27.7274 26.111 -94.1044
rradius 85.4506
rwrist 36.6598
rhand -35.9837 15.0957
rfingers 7.12502
rthumb -9.09405 -14.6882
lclavicle -2.76311e-014 -5.96354e-015
lhumerus -25.339 -8.49859 85.7013
lradius 69.0099
lwrist -4.99396
lhand -22.7379 18.5389
lfingers 7.12502
lthumb 3.69622 48.4866
rfemur -72.6197 -29.4054 26.5357
rtibia 137.58
rfoot 1.33104 5.91087
rtoes 0.132665
lfemur -41.7399 32.5739 -16.3228
ltibia 99.8081
lfoot 0.404348 -7.03668
ltoes -20.1781
581
root 0.581676 15.7323 -3.19624 341.089 -48.3534 -357.272
lowerback 18.891 -0.58043 -6.42418
upperback 11.1424 -2.21511 -1.04942
thorax 1.66601 -1.59899 2.87196
lowerneck -7.07216 -14.8963 -21.5229
upperneck 19.3098 -20.1127 11.4285
head 10.7561 -10.0214 4.58283
rclavicle -1.48095e-014 1.59028e-014
rhumerus -27.724 26.0947 -94.1057
rradius 85.4212
rwrist 36.605
rhand -35.7109 15.0576
rfingers 7.12502
rthumb -8.83082 -14.7376
lclavicle -1.48095e-014 1.59028e-014
lhumerus -25.3708 -8.46304 85.693
lradius 68.9377
lwrist -5.01172
lhand -22.6404 18.4235
lfingers 7.12502
lthumb 3.79034 48.3695
rfemur -72.6908 -29.4293 26.5179
rtibia 137.586
rfoot 1.33492 5.83827
rtoes -0.285133
lfemur -41.7141 32.6484 -16.3998
ltibia 99.7891
lfoot 0.340708 -7.07602
ltoes -20.0622
582
root 0.578606 15.7303 -3.19299 341.116 -48.2762 -357.233
lowerback 18.8517 -0.595303 -6.40922
upperback 11.1259 -2.2282 -1.08226
thorax 1.66669 -1.60238 2.82999
lowerneck -7.12196 -14.9133 -21.4196
upperneck 19.3479 -20.1473 11.4271
head 10.773 -10.0288 4.55815
rclavicle 3.47873e-015 -3.57812e-014
rhumerus -27.6062 26.0198 -94.1621
rradius 85.2714
rwrist 36.5256
rhand -35.5634 15.2144
rfingers 7.12502
rthumb -8.68848 -14.5868
lclavicle 3.47873e-015 -3.57812e-014
lhumerus -25.3425 -8.45747 85.6231
lradius 68.8704
lwrist -4.95909
lhand -22.5477 18.3881
lfingers 7.12502
lthumb 3.87993 48.3325
rfemur -72.7831 -29.5002 26.5148
rtibia 137.612
rfoot 1.32822 5.79556
rtoes -0.153135
lfemur -41.7754 32.6984 -16.4815
ltibia 99.7965
lfoot 0.312779 -7.16622
ltoes -20.3042
583
root 0.576245 15.731 -3.19189 341.274 -48.1927 -357.36
lowerback 18.815 -0.623822 -6.24605
upperback 11.1201 -2.23618 -1.12517
thorax 1.66822 -1.59575 2.69334
lowerneck -7.19008 -14.9469 -21.2777
upperneck 19.4191 -20.2255 11.4768
head 10.815 -10.049 4.53592
rclavicle 1.98785e-015 -9.54166e-015
rhumerus -27.5023 25.8874 -94.2798
rradius 85.1314
rwrist 36.4453
rhand -35.5814 15.32
rfingers 7.12502
rthumb -8.7059 -14.4805
lclavicle 1.98785e-015 -9.54166e-015
lhumerus -25.2904 -8.60592 85.5111
lradius 68.8157
lwrist -4.90555
lhand -22.5799 18.6055
lfingers 7.12502
lthumb 3.84879 48.5505
rfemur -72.8571 -29.5552 26.6006
rtibia 137.62
rfoot 1.32952 5.75445
rtoes 0.616124
lfemur -41.9067 32.7054 -16.4584
ltibia 99.8082
lfoot 0.330611 -7.25084
ltoes -20.5944
584
root 0.573919 15.7357 -3.19076 341.519 -48.0779 -357.564
lowerback 18.6931 -0.67057 -5.99563
upperback 11.1341 -2.24693 -1.14585
thorax 1.73126 -1.58884 2.52831
lowerneck -7.2448 -14.9917 -21.2893
upperneck 19.5177 -20.3234 11.608
head 10.8964 -10.0816 4.55854
rclavicle 9.64106e-015 2.78299e-015
rhumerus -27.5358 25.6987 -94.3811
rradius 85.146
rwrist 36.4597
rhand -35.6096 15.4049
rfingers 7.12502
rthumb -8.73309 -14.3944
lclavicle 9.64106e-015 2.78299e-015
lhumerus -25.2288 -8.83646 85.4696
lradius 68.7667
lwrist -4.83908
lhand -22.617 18.9458
lfingers 7.12502
lthumb 3.81298 48.8914
rfemur -72.9162 -29.6743 26.7565
rtibia 137.583
rfoot 1.2924 5.71511
rtoes 1.07265
lfemur -42.0864 32.6147 -16.4089
ltibia 99.8131
lfoot 0.386884 -7.26256
ltoes -20.6468
